<?xml version="1.0" standalone="no"?>
<!DOCTYPE svg PUBLIC "-//W3C//DTD SVG 20010904//EN"
 "http://www.w3.org/TR/2001/REC-SVG-20010904/DTD/svg10.dtd">
<svg version="1.0" xmlns="http://www.w3.org/2000/svg"
 width="1280.000000pt" height="1280.000000pt" viewBox="0 0 1280.000000 1280.000000"
 preserveAspectRatio="xMidYMid meet">

<g transform="translate(0.000000,1280.000000) scale(0.100000,-0.100000)"
fill="#000000" stroke="none">
<path d="M1317 7445 c-164 -28 -298 -81 -434 -171 -223 -148 -383 -369 -450
-619 -22 -85 -26 -121 -27 -245 -1 -227 40 -382 152 -559 98 -156 207 -261
377 -363 313 -188 762 -203 1089 -36 l49 25 40 -38 c64 -63 101 -69 396 -69
276 1 301 5 367 55 19 15 47 49 62 76 l27 49 135 0 135 0 27 -50 c31 -55 92
-105 147 -120 48 -12 1092 -12 1149 1 56 12 117 53 143 96 l21 34 38 -35 c63
-57 97 -70 175 -71 59 0 78 4 117 27 25 16 56 40 67 55 12 14 23 24 24 22 37
-54 66 -84 105 -106 l47 -28 270 0 c256 0 272 1 309 21 l40 21 35 -21 c35 -21
47 -21 589 -24 356 -2 566 1 591 8 56 15 116 62 148 117 l28 48 0 260 0 260
-27 47 c-16 25 -39 55 -53 66 l-24 19 -1 202 -2 202 26 20 c14 11 38 42 54 67
l27 47 0 255 0 255 -28 48 c-32 55 -92 102 -148 117 -25 7 -235 10 -591 8
-492 -3 -556 -5 -583 -20 -29 -15 -31 -15 -75 10 -41 24 -57 27 -165 30 -136
4 -184 -5 -242 -47 -26 -19 -125 -145 -283 -363 -134 -183 -247 -337 -250
-341 -4 -5 -121 147 -260 337 -138 190 -265 356 -282 367 -50 36 -113 49 -232
49 -159 -1 -227 -31 -283 -128 l-28 -47 -5 -446 -5 -446 -215 469 c-118 258
-228 484 -243 503 -16 19 -50 47 -75 63 -46 26 -50 27 -212 27 -162 0 -166 -1
-212 -27 -25 -15 -59 -45 -76 -65 -16 -21 -89 -168 -162 -328 -73 -159 -139
-302 -147 -318 l-14 -27 -34 26 c-53 40 -101 53 -198 54 l-88 0 39 53 c80 110
87 126 87 207 0 107 -41 173 -155 250 -238 161 -548 231 -823 185z m319 -236
c91 -16 181 -46 269 -89 91 -44 159 -96 151 -116 -7 -19 -216 -304 -223 -304
-3 0 -19 11 -35 26 -70 58 -198 104 -293 104 -164 0 -326 -105 -398 -257 -30
-64 -32 -75 -32 -178 0 -103 2 -114 31 -176 40 -84 124 -169 208 -208 199 -96
460 -44 527 104 10 22 19 50 19 62 0 22 -1 23 -177 25 l-178 3 -3 153 -3 152
405 0 c372 0 404 -1 410 -17 11 -27 8 -232 -4 -293 -34 -177 -123 -333 -252
-439 -78 -65 -218 -135 -323 -162 -108 -28 -307 -31 -417 -6 -322 75 -555 286
-650 587 -33 106 -33 309 0 423 91 316 358 551 689 607 71 12 211 11 279 -1z
m1925 -792 c196 -428 360 -784 363 -792 5 -13 -27 -15 -223 -15 l-228 0 -39
90 -38 90 -296 0 -295 0 -39 -90 -39 -90 -228 0 -229 0 14 33 c23 53 706 1539
712 1549 3 5 51 7 106 6 l101 -3 358 -778z m1029 323 c184 -252 339 -458 344
-457 4 2 157 207 340 457 l332 455 87 3 87 3 0 -796 0 -795 -210 0 -210 0 -2
309 -3 309 -208 -294 c-115 -162 -213 -292 -217 -289 -5 3 -100 134 -212 291
l-203 286 -3 -306 -2 -306 -210 0 -210 0 0 795 0 795 83 0 83 0 334 -460z
m2480 245 l0 -195 -305 0 -305 0 0 -105 0 -105 250 0 250 0 0 -175 0 -175
-247 -2 -248 -3 -3 -112 -3 -113 306 0 305 0 0 -195 0 -195 -510 0 -510 0 0
785 0 785 510 0 510 0 0 -195z"/>
<path d="M3019 6282 l-76 -177 78 -3 c44 -2 115 -2 158 0 l80 3 -77 178 c-42
97 -79 177 -82 177 -3 0 -39 -80 -81 -178z"/>
<path d="M8360 7443 c-307 -32 -583 -234 -668 -488 -78 -233 -24 -492 139
-660 l39 -41 -101 -99 c-120 -119 -155 -167 -169 -230 -16 -73 1 -138 62 -229
238 -360 869 -459 1257 -198 l44 30 31 -46 c17 -26 53 -60 80 -77 l49 -30 249
-3 c296 -4 333 3 403 73 74 74 75 79 75 627 l0 478 35 0 35 0 0 -467 c0 -258
3 -485 6 -506 11 -65 63 -136 124 -171 l55 -31 270 0 270 0 47 28 c53 31 94
79 114 134 10 30 13 144 14 526 l0 487 40 0 39 0 3 -502 3 -503 28 -47 c31
-53 79 -94 134 -114 30 -10 152 -13 574 -14 612 0 609 0 684 75 67 66 75 107
75 360 0 248 -9 292 -70 356 l-39 41 -1 197 -2 196 41 43 c62 65 71 109 71
352 0 248 -9 289 -75 355 -76 77 -71 76 -706 71 -305 -2 -567 -4 -584 -3 -16
1 -315 1 -662 1 -751 -1 -666 -1 -988 0 l-260 1 -47 -28 c-38 -22 -76 -60
-104 -105 -2 -2 -23 10 -49 28 -146 100 -371 154 -565 133z m264 -258 c126
-33 240 -111 293 -202 l26 -45 -24 -22 c-13 -12 -68 -64 -121 -116 l-98 -93
-19 24 c-28 36 -109 77 -172 86 -79 13 -138 0 -171 -37 -60 -66 -25 -107 148
-177 281 -112 404 -204 470 -348 105 -229 8 -474 -236 -594 -117 -57 -205 -74
-350 -68 -137 6 -207 23 -318 78 -85 41 -171 115 -204 175 l-17 30 124 124
124 123 55 -51 c77 -70 145 -95 261 -96 68 -1 99 3 127 17 39 20 64 63 53 96
-11 37 -88 91 -215 152 -232 112 -252 124 -321 187 -258 238 -157 619 196 743
115 40 267 46 389 14z m986 -790 l0 -785 -210 0 -210 0 0 785 0 785 210 0 210
0 0 -785z m1350 590 l0 -195 -190 0 -190 0 0 -590 0 -590 -210 0 -210 0 0 590
0 590 -185 0 -185 0 0 195 0 195 585 0 585 0 0 -195z m1198 3 l-3 -193 -302
-3 -303 -2 0 -105 0 -105 250 0 250 0 0 -175 0 -175 -250 0 -250 0 0 -115 0
-115 305 0 305 0 0 -195 0 -195 -510 0 -510 0 0 785 0 785 510 0 510 0 -2
-192z"/>
</g>
</svg>
